####
#
# OBJ File Generated by Meshlab
#
####
# Object bunny_ear.obj
#
# Vertices: 37
# Faces: 70
#
####
vn -0.649240 -1.406031 0.011808
v -0.175845 0.120423 0.450718
vn 0.045346 -1.043287 2.044571
v -0.125000 0.180896 0.538459
vn -2.174923 0.417911 5.168465
v -0.158063 0.271551 0.498738
vn -5.614361 -0.000258 2.609870
v -0.168425 0.194307 0.469478
vn -4.337234 -0.720505 -0.611656
v -0.187419 0.195998 0.427847
vn 2.710777 1.688748 4.519449
v -0.070202 0.260829 0.497284
vn 2.997030 2.462417 4.087194
v -0.085580 0.306084 0.480873
vn -1.421836 1.153202 4.065993
v -0.187472 0.361254 0.490143
vn -4.528985 -0.625409 -0.152659
v -0.205894 0.350376 0.463606
vn -5.281676 -0.902880 -2.343425
v -0.158022 0.323752 0.423025
vn -1.495168 0.977021 1.127900
v -0.206732 0.448994 0.438728
vn -5.868909 -1.739758 -1.009856
v -0.168642 0.389742 0.387780
vn -4.854207 0.200241 1.872367
v -0.157362 0.359651 0.342287
vn -4.860043 0.999884 1.468467
v -0.150998 0.315627 0.376440
vn -0.596771 1.277629 0.601745
v -0.206017 0.536886 0.361396
vn -0.328886 0.606325 -0.405035
v -0.239207 0.551875 0.211357
vn -5.829662 -1.078139 1.946376
v -0.209973 0.480166 0.270462
vn -1.008995 -0.112215 -1.239925
v -0.241403 0.470994 0.197563
vn -5.378009 0.231873 3.193856
v -0.208276 0.435239 0.266801
vn -1.749140 -0.609870 -0.865656
v -0.234021 0.366151 0.253846
vn -4.633633 1.729613 3.858029
v -0.204350 0.362568 0.293820
vn -2.272516 -1.040219 -0.762080
v -0.218615 0.275283 0.320663
vn -4.460569 2.557678 3.558739
v -0.185649 0.295876 0.357321
vn -5.204558 -0.344022 2.345457
v -0.170999 0.392939 0.319295
vn 2.483807 0.197002 0.304401
v -0.003698 0.260344 0.438704
vn 4.704485 3.189953 -0.281227
v -0.046584 0.296211 0.415912
vn 5.383841 1.935434 -0.768991
v -0.070735 0.344997 0.382940
vn 3.846222 2.892311 3.139208
v -0.098884 0.366977 0.447027
vn 5.716247 1.871488 -0.961380
v -0.099276 0.399166 0.347804
vn 4.095763 3.335988 2.423801
v -0.117127 0.425434 0.404829
vn 4.720378 3.527320 0.580883
v -0.127522 0.463111 0.353861
vn 4.785983 3.196754 -1.404077
v -0.134629 0.465096 0.296001
vn 3.685271 0.306998 -3.530133
v -0.125439 0.410285 0.261776
vn 2.908063 -1.010223 -3.829889
v -0.122366 0.367987 0.267620
vn 2.529083 -1.391312 -4.152525
v -0.107111 0.297605 0.303503
vn 2.376940 -1.535686 -3.838047
v -0.075810 0.243625 0.340540
vn 0.760876 -2.476021 -2.497687
v -0.082373 0.199383 0.359233
# 37 vertices, 0 vertices normals

f 14//14 10//10 12//12
f 14//14 12//12 13//13
f 24//24 13//13 12//12
f 4//4 14//14 23//23
f 24//24 17//17 19//19
f 4//4 10//10 14//14
f 21//21 13//13 24//24
f 21//21 24//24 19//19
f 23//23 14//14 13//13
f 23//23 13//13 21//21
f 22//22 35//35 36//36
f 33//33 18//18 16//16
f 7//7 8//8 3//3
f 37//37 36//36 25//25
f 7//7 26//26 27//27
f 7//7 27//27 28//28
f 12//12 11//11 15//15
f 1//1 4//4 5//5
f 21//21 19//19 18//18
f 21//21 18//18 20//20
f 6//6 25//25 26//26
f 36//36 35//35 27//27
f 36//36 27//27 26//26
f 16//16 15//15 31//31
f 16//16 31//31 32//32
f 1//1 5//5 36//36
f 1//1 36//36 37//37
f 11//11 8//8 28//28
f 11//11 28//28 30//30
f 33//33 29//29 34//34
f 26//26 7//7 6//6
f 17//17 15//15 16//16
f 4//4 9//9 10//10
f 35//35 34//34 29//29
f 35//35 29//29 27//27
f 15//15 11//11 30//30
f 36//36 5//5 22//22
f 16//16 32//32 33//33
f 7//7 28//28 8//8
f 36//36 26//26 25//25
f 30//30 29//29 31//31
f 19//19 17//17 16//16
f 19//19 16//16 18//18
f 4//4 3//3 8//8
f 4//4 8//8 9//9
f 5//5 4//4 23//23
f 5//5 23//23 22//22
f 30//30 28//28 27//27
f 30//30 27//27 29//29
f 18//18 33//33 20//20
f 22//22 20//20 34//34
f 22//22 34//34 35//35
f 31//31 29//29 32//32
f 8//8 11//11 9//9
f 10//10 11//11 12//12
f 10//10 9//9 11//11
f 3//3 2//2 6//6
f 3//3 6//6 7//7
f 22//22 23//23 21//21
f 22//22 21//21 20//20
f 29//29 33//33 32//32
f 30//30 31//31 15//15
f 34//34 20//20 33//33
f 25//25 6//6 2//2
f 37//37 25//25 2//2
f 1//1 37//37 2//2
f 2//2 3//3 4//4
f 2//2 4//4 1//1
f 12//12 15//15 17//17
f 24//24 12//12 17//17
# 70 faces, 0 coords texture

# End of File